<mxfile host="app.diagrams.net" modified="2022-12-20T10:29:13.596Z" agent="5.0 (Windows NT 10.0; Win64; x64) AppleWebKit/537.36 (KHTML, like Gecko) Chrome/108.0.0.0 Safari/537.36" etag="-nkk2YsVQe05fQkeHYHr" version="20.1.1" type="github">
  <diagram id="bBkaWaajhOemX0wFSSw-" name="Page-1">
    <mxGraphModel dx="1038" dy="539" grid="1" gridSize="10" guides="1" tooltips="1" connect="1" arrows="1" fold="1" page="1" pageScale="1" pageWidth="827" pageHeight="1169" math="0" shadow="0">
      <root>
        <mxCell id="0" />
        <mxCell id="1" parent="0" />
        <mxCell id="ABVPdDP91tDuJCGNUGK--3" style="edgeStyle=orthogonalEdgeStyle;rounded=0;orthogonalLoop=1;jettySize=auto;html=1;exitX=0.5;exitY=1;exitDx=0;exitDy=0;entryX=0.5;entryY=0;entryDx=0;entryDy=0;fontSize=16;" edge="1" parent="1" source="ABVPdDP91tDuJCGNUGK--1" target="ABVPdDP91tDuJCGNUGK--2">
          <mxGeometry relative="1" as="geometry" />
        </mxCell>
        <mxCell id="ABVPdDP91tDuJCGNUGK--1" value="&lt;font style=&quot;font-size: 16px;&quot;&gt;开始&lt;/font&gt;" style="ellipse;whiteSpace=wrap;html=1;" vertex="1" parent="1">
          <mxGeometry x="360" y="10" width="120" height="50" as="geometry" />
        </mxCell>
        <mxCell id="ABVPdDP91tDuJCGNUGK--5" value="" style="edgeStyle=orthogonalEdgeStyle;rounded=0;orthogonalLoop=1;jettySize=auto;html=1;fontSize=16;" edge="1" parent="1" source="ABVPdDP91tDuJCGNUGK--2" target="ABVPdDP91tDuJCGNUGK--4">
          <mxGeometry relative="1" as="geometry" />
        </mxCell>
        <mxCell id="ABVPdDP91tDuJCGNUGK--2" value="初始化每个粒子的速度和位置" style="rounded=0;whiteSpace=wrap;html=1;fontSize=16;" vertex="1" parent="1">
          <mxGeometry x="310" y="90" width="220" height="60" as="geometry" />
        </mxCell>
        <mxCell id="ABVPdDP91tDuJCGNUGK--8" value="" style="edgeStyle=orthogonalEdgeStyle;rounded=0;orthogonalLoop=1;jettySize=auto;html=1;fontSize=16;" edge="1" parent="1" source="ABVPdDP91tDuJCGNUGK--4" target="ABVPdDP91tDuJCGNUGK--7">
          <mxGeometry relative="1" as="geometry" />
        </mxCell>
        <mxCell id="ABVPdDP91tDuJCGNUGK--4" value="计算每个粒子的适应度值" style="whiteSpace=wrap;html=1;fontSize=16;rounded=0;" vertex="1" parent="1">
          <mxGeometry x="310" y="190" width="220" height="60" as="geometry" />
        </mxCell>
        <mxCell id="ABVPdDP91tDuJCGNUGK--10" value="" style="edgeStyle=orthogonalEdgeStyle;rounded=0;orthogonalLoop=1;jettySize=auto;html=1;fontSize=16;" edge="1" parent="1" source="ABVPdDP91tDuJCGNUGK--7" target="ABVPdDP91tDuJCGNUGK--9">
          <mxGeometry relative="1" as="geometry" />
        </mxCell>
        <mxCell id="ABVPdDP91tDuJCGNUGK--7" value="计算每个粒子的个体最优值" style="whiteSpace=wrap;html=1;fontSize=16;rounded=0;" vertex="1" parent="1">
          <mxGeometry x="310" y="280" width="220" height="60" as="geometry" />
        </mxCell>
        <mxCell id="ABVPdDP91tDuJCGNUGK--12" value="" style="edgeStyle=orthogonalEdgeStyle;rounded=0;orthogonalLoop=1;jettySize=auto;html=1;fontSize=16;" edge="1" parent="1" source="ABVPdDP91tDuJCGNUGK--9" target="ABVPdDP91tDuJCGNUGK--11">
          <mxGeometry relative="1" as="geometry" />
        </mxCell>
        <mxCell id="ABVPdDP91tDuJCGNUGK--9" value="计算整个群体的全局最优值" style="whiteSpace=wrap;html=1;fontSize=16;rounded=0;" vertex="1" parent="1">
          <mxGeometry x="310" y="370" width="220" height="60" as="geometry" />
        </mxCell>
        <mxCell id="ABVPdDP91tDuJCGNUGK--14" value="" style="edgeStyle=orthogonalEdgeStyle;rounded=0;orthogonalLoop=1;jettySize=auto;html=1;fontSize=16;" edge="1" parent="1" source="ABVPdDP91tDuJCGNUGK--11" target="ABVPdDP91tDuJCGNUGK--13">
          <mxGeometry relative="1" as="geometry" />
        </mxCell>
        <mxCell id="ABVPdDP91tDuJCGNUGK--11" value="更新每个粒子的速度和位置" style="whiteSpace=wrap;html=1;fontSize=16;rounded=0;" vertex="1" parent="1">
          <mxGeometry x="310" y="460" width="220" height="60" as="geometry" />
        </mxCell>
        <mxCell id="ABVPdDP91tDuJCGNUGK--19" value="" style="edgeStyle=orthogonalEdgeStyle;rounded=0;orthogonalLoop=1;jettySize=auto;html=1;fontSize=16;" edge="1" parent="1" source="ABVPdDP91tDuJCGNUGK--13" target="ABVPdDP91tDuJCGNUGK--16">
          <mxGeometry relative="1" as="geometry" />
        </mxCell>
        <mxCell id="ABVPdDP91tDuJCGNUGK--13" value="处理边界" style="whiteSpace=wrap;html=1;fontSize=16;rounded=0;" vertex="1" parent="1">
          <mxGeometry x="310" y="554.5" width="220" height="60" as="geometry" />
        </mxCell>
        <mxCell id="ABVPdDP91tDuJCGNUGK--17" style="edgeStyle=orthogonalEdgeStyle;rounded=0;orthogonalLoop=1;jettySize=auto;html=1;exitX=1;exitY=0.5;exitDx=0;exitDy=0;entryX=1;entryY=0.5;entryDx=0;entryDy=0;fontSize=16;" edge="1" parent="1" source="ABVPdDP91tDuJCGNUGK--16" target="ABVPdDP91tDuJCGNUGK--4">
          <mxGeometry relative="1" as="geometry">
            <Array as="points">
              <mxPoint x="590" y="670" />
              <mxPoint x="590" y="220" />
            </Array>
          </mxGeometry>
        </mxCell>
        <mxCell id="ABVPdDP91tDuJCGNUGK--18" value="否" style="edgeLabel;html=1;align=center;verticalAlign=middle;resizable=0;points=[];fontSize=16;" vertex="1" connectable="0" parent="ABVPdDP91tDuJCGNUGK--17">
          <mxGeometry x="-0.0807" y="-1" relative="1" as="geometry">
            <mxPoint as="offset" />
          </mxGeometry>
        </mxCell>
        <mxCell id="ABVPdDP91tDuJCGNUGK--22" value="" style="edgeStyle=orthogonalEdgeStyle;rounded=0;orthogonalLoop=1;jettySize=auto;html=1;fontSize=16;" edge="1" parent="1" source="ABVPdDP91tDuJCGNUGK--16" target="ABVPdDP91tDuJCGNUGK--21">
          <mxGeometry relative="1" as="geometry" />
        </mxCell>
        <mxCell id="ABVPdDP91tDuJCGNUGK--16" value="是否满足结束条件" style="rhombus;whiteSpace=wrap;html=1;fontSize=16;" vertex="1" parent="1">
          <mxGeometry x="315" y="640" width="210" height="60" as="geometry" />
        </mxCell>
        <mxCell id="ABVPdDP91tDuJCGNUGK--21" value="&lt;font style=&quot;font-size: 16px;&quot;&gt;结束&lt;/font&gt;" style="ellipse;whiteSpace=wrap;html=1;" vertex="1" parent="1">
          <mxGeometry x="360" y="730" width="120" height="50" as="geometry" />
        </mxCell>
        <mxCell id="ABVPdDP91tDuJCGNUGK--23" value="是" style="text;html=1;align=center;verticalAlign=middle;resizable=0;points=[];autosize=1;strokeColor=none;fillColor=none;fontSize=16;" vertex="1" parent="1">
          <mxGeometry x="410" y="695" width="40" height="30" as="geometry" />
        </mxCell>
      </root>
    </mxGraphModel>
  </diagram>
</mxfile>
